# MagicaVoxel @ Ephtracy

# group
o 

# material
mtllib IKEA_Manager.mtl
usemtl palette

# normals
vn -1 0 0
vn 1 0 0
vn 0 0 1
vn 0 0 -1
vn 0 -1 0
vn 0 1 0

# texcoords
vt 0.00976562 0.5
vt 0.0175781 0.5
vt 0.0292969 0.5
vt 0.423828 0.5
vt 0.447266 0.5
vt 0.833984 0.5
vt 0.962891 0.5
vt 0.978516 0.5

# verts
v -0.5 0.6 0.1
v -0.5 0.6 -0.1
v -0.5 0.7 0.1
v -0.5 0.7 -0.1
v -0.5 1.2 0.1
v -0.5 1.2 -0.1
v -0.5 1.3 0.3
v -0.5 1.3 -0.3
v -0.5 1.9 0.5
v -0.5 1.9 0.3
v -0.5 1.9 -0.3
v -0.5 2 0.5
v -0.5 2 0.3
v -0.5 2.1 0.3
v -0.5 2.1 -0.3
v -0.4 0.5 0.2
v -0.4 0.5 -0.2
v -0.4 0.6 0.1
v -0.4 0.6 -0.1
v -0.4 0.7 0.1
v -0.4 0.7 -0.1
v -0.4 0.8 -0.1
v -0.4 0.8 -0.2
v -0.4 0.9 0.2
v -0.4 0.9 0.1
v -0.4 1.2 0.2
v -0.4 1.2 0.1
v -0.4 1.2 -0.1
v -0.4 1.2 -0.2
v -0.3 0 0.2
v -0.3 0 -0.1
v -0.3 0.1 0.2
v -0.3 0.1 0.1
v -0.3 0.1 -0.1
v -0.3 0.5 0.1
v -0.3 0.5 -0.1
v -0.1 1.2 0.1
v -0.1 1.2 -0.1
v -0.1 1.3 0.1
v -0.1 1.3 -0.1
v 0.1 0 0.2
v 0.1 0 -0.1
v 0.1 0.1 0.2
v 0.1 0.1 0.1
v 0.1 0.1 -0.1
v 0.1 0.4 0.1
v 0.1 0.4 -0.1
v -0.1 0 0.2
v -0.1 0 -0.1
v -0.1 0.1 0.2
v -0.1 0.1 0.1
v -0.1 0.1 -0.1
v -0.1 0.4 0.1
v -0.1 0.4 -0.1
v 0.1 1.2 0.1
v 0.1 1.2 -0.1
v 0.1 1.3 0.1
v 0.1 1.3 -0.1
v 0.3 0 0.2
v 0.3 0 -0.1
v 0.3 0.1 0.2
v 0.3 0.1 0.1
v 0.3 0.1 -0.1
v 0.3 0.5 0.1
v 0.3 0.5 -0.1
v 0.4 0.5 0.2
v 0.4 0.5 -0.2
v 0.4 0.6 0.1
v 0.4 0.6 -0.1
v 0.4 0.7 0.1
v 0.4 0.7 -0.1
v 0.4 0.8 -0.1
v 0.4 0.8 -0.2
v 0.4 0.9 0.2
v 0.4 0.9 0.1
v 0.4 1.2 0.2
v 0.4 1.2 0.1
v 0.4 1.2 -0.1
v 0.4 1.2 -0.2
v 0.5 0.6 0.1
v 0.5 0.6 -0.1
v 0.5 0.7 0.1
v 0.5 0.7 -0.1
v 0.5 1.2 0.1
v 0.5 1.2 -0.1
v 0.5 1.3 0.3
v 0.5 1.3 -0.3
v 0.5 1.9 0.5
v 0.5 1.9 0.3
v 0.5 1.9 -0.3
v 0.5 2 0.5
v 0.5 2 0.3
v 0.5 2.1 0.3
v 0.5 2.1 -0.3
v -0.5 1.9 0.5
v -0.5 2 0.5
v 0.5 1.9 0.5
v 0.5 2 0.5
v -0.5 1.3 0.3
v -0.5 1.9 0.3
v -0.5 2 0.3
v -0.5 2.1 0.3
v -0.3 1.5 0.3
v -0.3 1.7 0.3
v -0.3 1.8 0.3
v -0.1 1.5 0.3
v -0.1 1.7 0.3
v -0.1 1.8 0.3
v 0.1 1.5 0.3
v 0.1 1.7 0.3
v 0.1 1.8 0.3
v 0.3 1.5 0.3
v 0.3 1.7 0.3
v 0.3 1.8 0.3
v 0.5 1.3 0.3
v 0.5 1.9 0.3
v 0.5 2 0.3
v 0.5 2.1 0.3
v -0.4 0.5 0.2
v -0.4 0.9 0.2
v -0.4 1.2 0.2
v -0.3 0 0.2
v -0.3 0.1 0.2
v -0.3 0.9 0.2
v -0.3 1.2 0.2
v -0.2 1 0.2
v -0.2 1.2 0.2
v -0.1 0 0.2
v -0.1 0.1 0.2
v -0.1 0.8 0.2
v -0.1 0.9 0.2
v 0.1 0 0.2
v 0.1 0.1 0.2
v 0.1 0.8 0.2
v 0.1 0.9 0.2
v 0.2 1 0.2
v 0.2 1.2 0.2
v 0.3 0 0.2
v 0.3 0.1 0.2
v 0.3 0.9 0.2
v 0.3 1.2 0.2
v 0.4 0.5 0.2
v 0.4 0.9 0.2
v 0.4 1.2 0.2
v -0.5 0.6 0.1
v -0.5 0.7 0.1
v -0.5 1.2 0.1
v -0.4 0.6 0.1
v -0.4 0.7 0.1
v -0.4 0.9 0.1
v -0.4 1.2 0.1
v -0.3 0.1 0.1
v -0.3 0.5 0.1
v -0.1 0.1 0.1
v -0.1 0.4 0.1
v -0.1 1.2 0.1
v -0.1 1.3 0.1
v 0.1 0.1 0.1
v 0.1 0.4 0.1
v 0.1 1.2 0.1
v 0.1 1.3 0.1
v 0.3 0.1 0.1
v 0.3 0.5 0.1
v 0.4 0.6 0.1
v 0.4 0.7 0.1
v 0.4 0.9 0.1
v 0.4 1.2 0.1
v 0.5 0.6 0.1
v 0.5 0.7 0.1
v 0.5 1.2 0.1
v -0.5 0.6 -0.1
v -0.5 0.7 -0.1
v -0.5 1.2 -0.1
v -0.4 0.6 -0.1
v -0.4 0.7 -0.1
v -0.4 0.8 -0.1
v -0.4 1.2 -0.1
v -0.3 0 -0.1
v -0.3 0.1 -0.1
v -0.3 0.5 -0.1
v -0.1 0 -0.1
v -0.1 0.1 -0.1
v -0.1 0.4 -0.1
v -0.1 1.2 -0.1
v -0.1 1.3 -0.1
v 0.1 0 -0.1
v 0.1 0.1 -0.1
v 0.1 0.4 -0.1
v 0.1 1.2 -0.1
v 0.1 1.3 -0.1
v 0.3 0 -0.1
v 0.3 0.1 -0.1
v 0.3 0.5 -0.1
v 0.4 0.6 -0.1
v 0.4 0.7 -0.1
v 0.4 0.8 -0.1
v 0.4 1.2 -0.1
v 0.5 0.6 -0.1
v 0.5 0.7 -0.1
v 0.5 1.2 -0.1
v -0.4 0.5 -0.2
v -0.4 0.8 -0.2
v -0.4 1.2 -0.2
v -0.3 0.8 -0.2
v -0.3 1.2 -0.2
v -0.2 0.9 -0.2
v -0.2 1.2 -0.2
v 0.2 0.9 -0.2
v 0.2 1.2 -0.2
v 0.3 0.8 -0.2
v 0.3 1.2 -0.2
v 0.4 0.5 -0.2
v 0.4 0.8 -0.2
v 0.4 1.2 -0.2
v -0.5 1.3 -0.3
v -0.5 1.9 -0.3
v -0.5 2.1 -0.3
v 0.5 1.3 -0.3
v 0.5 1.9 -0.3
v 0.5 2.1 -0.3
v -0.3 0 0.2
v -0.1 0 0.2
v 0.1 0 0.2
v 0.3 0 0.2
v -0.3 0 -0.1
v -0.1 0 -0.1
v 0.1 0 -0.1
v 0.3 0 -0.1
v -0.1 0.4 0.1
v 0.1 0.4 0.1
v -0.1 0.4 -0.1
v 0.1 0.4 -0.1
v -0.4 0.5 0.2
v 0.4 0.5 0.2
v -0.3 0.5 0.1
v 0.3 0.5 0.1
v -0.3 0.5 -0.1
v 0.3 0.5 -0.1
v -0.4 0.5 -0.2
v 0.4 0.5 -0.2
v -0.5 0.6 0.1
v -0.4 0.6 0.1
v 0.4 0.6 0.1
v 0.5 0.6 0.1
v -0.5 0.6 -0.1
v -0.4 0.6 -0.1
v 0.4 0.6 -0.1
v 0.5 0.6 -0.1
v -0.5 1.3 0.3
v 0.5 1.3 0.3
v -0.1 1.3 0.1
v 0.1 1.3 0.1
v -0.1 1.3 -0.1
v 0.1 1.3 -0.1
v -0.5 1.3 -0.3
v 0.5 1.3 -0.3
v -0.5 1.9 0.5
v 0.5 1.9 0.5
v -0.5 1.9 0.3
v 0.5 1.9 0.3
v -0.3 0.1 0.2
v -0.1 0.1 0.2
v 0.1 0.1 0.2
v 0.3 0.1 0.2
v -0.3 0.1 0.1
v -0.1 0.1 0.1
v 0.1 0.1 0.1
v 0.3 0.1 0.1
v -0.4 1.2 0.2
v -0.3 1.2 0.2
v -0.2 1.2 0.2
v 0.2 1.2 0.2
v 0.3 1.2 0.2
v 0.4 1.2 0.2
v -0.5 1.2 0.1
v -0.4 1.2 0.1
v -0.1 1.2 0.1
v 0.1 1.2 0.1
v 0.4 1.2 0.1
v 0.5 1.2 0.1
v -0.5 1.2 -0.1
v -0.4 1.2 -0.1
v -0.1 1.2 -0.1
v 0.1 1.2 -0.1
v 0.4 1.2 -0.1
v 0.5 1.2 -0.1
v -0.4 1.2 -0.2
v -0.3 1.2 -0.2
v -0.2 1.2 -0.2
v 0.2 1.2 -0.2
v 0.3 1.2 -0.2
v 0.4 1.2 -0.2
v -0.5 2 0.5
v 0.5 2 0.5
v -0.5 2 0.3
v 0.5 2 0.3
v -0.5 2.1 0.3
v 0.5 2.1 0.3
v -0.5 2.1 -0.3
v 0.5 2.1 -0.3

# faces
f 3/3/1 2/3/1 1/3/1
f 4/3/1 2/3/1 3/3/1
f 5/2/1 4/2/1 3/2/1
f 6/2/1 4/2/1 5/2/1
f 10/3/1 8/3/1 7/3/1
f 11/3/1 8/3/1 10/3/1
f 12/6/1 10/6/1 9/6/1
f 12/6/1 11/6/1 10/6/1
f 13/6/1 11/6/1 12/6/1
f 14/6/1 11/6/1 13/6/1
f 15/6/1 11/6/1 14/6/1
f 18/6/1 17/6/1 16/6/1
f 19/6/1 17/6/1 18/6/1
f 20/6/1 18/6/1 16/6/1
f 21/6/1 17/6/1 19/6/1
f 22/6/1 17/6/1 21/6/1
f 23/6/1 17/6/1 22/6/1
f 24/6/1 20/6/1 16/6/1
f 25/6/1 20/6/1 24/6/1
f 26/2/1 25/2/1 24/2/1
f 27/2/1 25/2/1 26/2/1
f 28/2/1 23/2/1 22/2/1
f 29/2/1 23/2/1 28/2/1
f 32/7/1 31/7/1 30/7/1
f 33/7/1 31/7/1 32/7/1
f 34/7/1 31/7/1 33/7/1
f 35/6/1 34/6/1 33/6/1
f 36/6/1 34/6/1 35/6/1
f 39/3/1 38/3/1 37/3/1
f 40/3/1 38/3/1 39/3/1
f 43/7/1 42/7/1 41/7/1
f 44/7/1 42/7/1 43/7/1
f 45/7/1 42/7/1 44/7/1
f 46/6/1 45/6/1 44/6/1
f 47/6/1 45/6/1 46/6/1
f 48/7/2 49/7/2 50/7/2
f 50/7/2 49/7/2 51/7/2
f 51/7/2 49/7/2 52/7/2
f 51/6/2 52/6/2 53/6/2
f 53/6/2 52/6/2 54/6/2
f 55/3/2 56/3/2 57/3/2
f 57/3/2 56/3/2 58/3/2
f 59/7/2 60/7/2 61/7/2
f 61/7/2 60/7/2 62/7/2
f 62/7/2 60/7/2 63/7/2
f 62/6/2 63/6/2 64/6/2
f 64/6/2 63/6/2 65/6/2
f 66/6/2 67/6/2 68/6/2
f 68/6/2 67/6/2 69/6/2
f 66/6/2 68/6/2 70/6/2
f 69/6/2 67/6/2 71/6/2
f 71/6/2 67/6/2 72/6/2
f 72/6/2 67/6/2 73/6/2
f 66/6/2 70/6/2 74/6/2
f 74/6/2 70/6/2 75/6/2
f 74/2/2 75/2/2 76/2/2
f 76/2/2 75/2/2 77/2/2
f 72/2/2 73/2/2 78/2/2
f 78/2/2 73/2/2 79/2/2
f 80/3/2 81/3/2 82/3/2
f 82/3/2 81/3/2 83/3/2
f 82/2/2 83/2/2 84/2/2
f 84/2/2 83/2/2 85/2/2
f 86/3/2 87/3/2 89/3/2
f 89/3/2 87/3/2 90/3/2
f 88/6/2 89/6/2 91/6/2
f 89/6/2 90/6/2 91/6/2
f 91/6/2 90/6/2 92/6/2
f 92/6/2 90/6/2 93/6/2
f 93/6/2 90/6/2 94/6/2
f 97/6/3 96/6/3 95/6/3
f 98/6/3 96/6/3 97/6/3
f 103/3/3 100/3/3 99/3/3
f 104/3/3 100/3/3 103/3/3
f 105/3/3 100/3/3 104/3/3
f 106/3/3 103/3/3 99/3/3
f 106/4/3 104/4/3 103/4/3
f 107/8/3 105/8/3 104/8/3
f 107/4/3 104/4/3 106/4/3
f 108/3/3 100/3/3 105/3/3
f 108/8/3 105/8/3 107/8/3
f 109/3/3 107/3/3 106/3/3
f 109/3/3 106/3/3 99/3/3
f 109/3/3 108/3/3 107/3/3
f 110/3/3 108/3/3 109/3/3
f 111/3/3 100/3/3 108/3/3
f 111/3/3 108/3/3 110/3/3
f 112/4/3 110/4/3 109/4/3
f 112/3/3 109/3/3 99/3/3
f 113/8/3 111/8/3 110/8/3
f 113/4/3 110/4/3 112/4/3
f 114/3/3 100/3/3 111/3/3
f 114/8/3 111/8/3 113/8/3
f 115/3/3 113/3/3 112/3/3
f 115/3/3 112/3/3 99/3/3
f 115/3/3 114/3/3 113/3/3
f 116/3/3 100/3/3 114/3/3
f 116/3/3 114/3/3 115/3/3
f 117/6/3 102/6/3 101/6/3
f 118/6/3 102/6/3 117/6/3
f 124/6/3 120/6/3 119/6/3
f 124/2/3 121/2/3 120/2/3
f 125/2/3 121/2/3 124/2/3
f 126/6/3 125/6/3 124/6/3
f 127/6/3 125/6/3 126/6/3
f 128/7/3 123/7/3 122/7/3
f 129/7/3 123/7/3 128/7/3
f 130/6/3 124/6/3 119/6/3
f 130/6/3 126/6/3 124/6/3
f 131/6/3 126/6/3 130/6/3
f 134/6/3 130/6/3 119/6/3
f 134/1/3 131/1/3 130/1/3
f 135/6/3 126/6/3 131/6/3
f 135/1/3 131/1/3 134/1/3
f 136/2/3 127/2/3 126/2/3
f 136/6/3 126/6/3 135/6/3
f 136/6/3 135/6/3 134/6/3
f 137/2/3 127/2/3 136/2/3
f 138/7/3 133/7/3 132/7/3
f 139/7/3 133/7/3 138/7/3
f 140/6/3 136/6/3 134/6/3
f 140/6/3 137/6/3 136/6/3
f 141/6/3 137/6/3 140/6/3
f 142/6/3 134/6/3 119/6/3
f 142/6/3 140/6/3 134/6/3
f 143/2/3 141/2/3 140/2/3
f 143/6/3 140/6/3 142/6/3
f 144/2/3 141/2/3 143/2/3
f 148/3/3 146/3/3 145/3/3
f 149/2/3 147/2/3 146/2/3
f 149/3/3 146/3/3 148/3/3
f 150/2/3 147/2/3 149/2/3
f 151/2/3 147/2/3 150/2/3
f 154/6/3 153/6/3 152/6/3
f 155/6/3 153/6/3 154/6/3
f 159/6/3 153/6/3 155/6/3
f 160/3/3 157/3/3 156/3/3
f 161/3/3 157/3/3 160/3/3
f 162/6/3 159/6/3 158/6/3
f 163/6/3 153/6/3 159/6/3
f 163/6/3 159/6/3 162/6/3
f 168/3/3 165/3/3 164/3/3
f 169/2/3 167/2/3 166/2/3
f 169/3/3 165/3/3 168/3/3
f 169/2/3 166/2/3 165/2/3
f 170/2/3 167/2/3 169/2/3
f 171/3/4 172/3/4 174/3/4
f 172/2/4 173/2/4 175/2/4
f 174/3/4 172/3/4 175/3/4
f 175/2/4 173/2/4 176/2/4
f 176/2/4 173/2/4 177/2/4
f 178/7/4 179/7/4 181/7/4
f 179/6/4 180/6/4 182/6/4
f 181/7/4 179/7/4 182/7/4
f 182/6/4 180/6/4 183/6/4
f 183/6/4 180/6/4 188/6/4
f 184/3/4 185/3/4 189/3/4
f 189/3/4 185/3/4 190/3/4
f 186/7/4 187/7/4 191/7/4
f 187/6/4 188/6/4 192/6/4
f 191/7/4 187/7/4 192/7/4
f 188/6/4 180/6/4 193/6/4
f 192/6/4 188/6/4 193/6/4
f 194/3/4 195/3/4 198/3/4
f 196/2/4 197/2/4 199/2/4
f 198/3/4 195/3/4 199/3/4
f 195/2/4 196/2/4 199/2/4
f 199/2/4 197/2/4 200/2/4
f 201/6/4 202/6/4 204/6/4
f 202/2/4 203/2/4 204/2/4
f 204/2/4 203/2/4 205/2/4
f 204/6/4 205/6/4 206/6/4
f 206/6/4 205/6/4 207/6/4
f 204/6/4 206/6/4 208/6/4
f 206/2/4 207/2/4 208/2/4
f 208/2/4 207/2/4 209/2/4
f 201/6/4 204/6/4 210/6/4
f 204/6/4 208/6/4 210/6/4
f 208/6/4 209/6/4 210/6/4
f 210/6/4 209/6/4 211/6/4
f 201/6/4 210/6/4 212/6/4
f 210/2/4 211/2/4 213/2/4
f 212/6/4 210/6/4 213/6/4
f 213/2/4 211/2/4 214/2/4
f 215/3/4 216/3/4 218/3/4
f 216/6/4 217/6/4 219/6/4
f 218/3/4 216/3/4 219/3/4
f 219/6/4 217/6/4 220/6/4
f 225/7/5 222/7/5 221/7/5
f 226/7/5 222/7/5 225/7/5
f 227/7/5 224/7/5 223/7/5
f 228/7/5 224/7/5 227/7/5
f 231/6/5 230/6/5 229/6/5
f 232/6/5 230/6/5 231/6/5
f 235/6/5 234/6/5 233/6/5
f 236/6/5 234/6/5 235/6/5
f 237/6/5 235/6/5 233/6/5
f 238/6/5 234/6/5 236/6/5
f 239/6/5 237/6/5 233/6/5
f 239/6/5 238/6/5 237/6/5
f 240/6/5 234/6/5 238/6/5
f 240/6/5 238/6/5 239/6/5
f 245/3/5 242/3/5 241/3/5
f 246/3/5 242/3/5 245/3/5
f 247/3/5 244/3/5 243/3/5
f 248/3/5 244/3/5 247/3/5
f 251/3/5 250/3/5 249/3/5
f 252/3/5 250/3/5 251/3/5
f 253/3/5 251/3/5 249/3/5
f 254/3/5 250/3/5 252/3/5
f 255/3/5 253/3/5 249/3/5
f 255/3/5 254/3/5 253/3/5
f 256/3/5 250/3/5 254/3/5
f 256/3/5 254/3/5 255/3/5
f 259/6/5 258/6/5 257/6/5
f 260/6/5 258/6/5 259/6/5
f 261/7/6 262/7/6 265/7/6
f 265/7/6 262/7/6 266/7/6
f 263/7/6 264/7/6 267/7/6
f 267/7/6 264/7/6 268/7/6
f 269/2/6 270/2/6 276/2/6
f 271/2/6 272/2/6 277/2/6
f 277/2/6 272/2/6 278/2/6
f 273/2/6 274/2/6 279/2/6
f 275/2/6 276/2/6 281/2/6
f 276/2/6 270/2/6 282/2/6
f 281/2/6 276/2/6 282/2/6
f 271/2/6 277/2/6 283/2/6
f 278/2/6 272/2/6 284/2/6
f 279/2/6 280/2/6 285/2/6
f 273/2/6 279/2/6 285/2/6
f 285/2/6 280/2/6 286/2/6
f 282/2/6 270/2/6 287/2/6
f 270/6/6 271/6/6 288/6/6
f 287/2/6 270/2/6 288/2/6
f 271/2/6 283/2/6 289/2/6
f 288/6/6 271/6/6 289/6/6
f 283/2/6 284/2/6 289/2/6
f 272/6/6 273/6/6 290/6/6
f 289/2/6 284/2/6 290/2/6
f 284/2/6 272/2/6 290/2/6
f 273/2/6 285/2/6 291/2/6
f 290/6/6 273/6/6 291/6/6
f 291/2/6 285/2/6 292/2/6
f 293/6/6 294/6/6 295/6/6
f 295/6/6 294/6/6 296/6/6
f 297/6/6 298/6/6 299/6/6
f 299/6/6 298/6/6 300/6/6
